<?xml version="1.0" encoding="utf-8"?>
<!-- Generator: Adobe Illustrator 21.1.0, SVG Export Plug-In . SVG Version: 6.00 Build 0)  -->
<svg version="1.1" id="Layer_1" xmlns="http://www.w3.org/2000/svg" xmlns:xlink="http://www.w3.org/1999/xlink" x="0px" y="0px"
	 viewBox="0 0 258 55" style="enable-background:new 0 0 258 55;" xml:space="preserve">
<style type="text/css">
	.st0{fill:#212121;}
	.st1{fill:#F95E08;}
	.st2{fill:#FFFFFF;}
</style>
<g>
	<g>
		<path class="st0" d="M20.6,7.5c8.1,0,12.3,4.6,12.3,4.6L30,16.6c0,0-3.8-3.5-9.1-3.5c-7.1,0-11.2,5.3-11.2,11.5
			c0,6.3,4.3,11.9,11.2,11.9c5.8,0,9.7-4.2,9.7-4.2l3.2,4.4c0,0-4.6,5.4-13.1,5.4c-10.2,0-17.3-7.6-17.3-17.4
			C3.5,15,10.8,7.5,20.6,7.5z"/>
		<path class="st0" d="M75.2,17c5.3,0,6.9,3.1,6.9,3.1h0.1c0,0,0-0.6,0-1.4V8.1h6v33.4h-5.6v-2c0-0.9,0.1-1.6,0.1-1.6h-0.1
			c0,0-2,4.1-7.5,4.1c-6.5,0-10.6-5.1-10.6-12.6C64.3,21.9,68.9,17,75.2,17z M76.3,37c3.1,0,6-2.3,6-7.6c0-3.7-2-7.4-6-7.4
			c-3.3,0-6,2.7-6,7.4C70.4,34.1,72.8,37,76.3,37z"/>
		<path class="st0" d="M93.8,8.1h5.9v5.3h-5.9V8.1z M93.8,17.5h6v24h-6V17.5z"/>
		<path class="st0" d="M105.4,17.5h5.7v2.8c0,0.9-0.1,1.6-0.1,1.6h0.1c1-2,3.7-5,8.5-5c5.3,0,8.3,2.8,8.3,9.1v15.4H122V27.3
			c0-2.9-0.8-4.9-3.8-4.9c-3.2,0-5.5,2-6.4,4.9c-0.3,1-0.4,2.1-0.4,3.2v11h-6V17.5z"/>
		<path class="st0" d="M142.3,46.3c3.7,0,6.8-1.6,6.8-5.8V39c0-0.6,0.1-1.3,0.1-1.3h-0.1c-1.4,2.1-3.5,3.2-6.7,3.2
			c-6.9,0-10.8-5.5-10.8-12.1S135.4,17,142.3,17c5.2,0,7.1,3.1,7.1,3.1h0.1c0,0,0-0.3,0-0.7v-1.8h5.6V40c0,8.2-6.4,11.3-12.6,11.3
			c-3,0-6.2-0.8-8.5-2.1l1.8-4.6C135.7,44.7,138.7,46.3,142.3,46.3z M149.3,28.9c0-5.5-2.7-6.9-5.9-6.9c-3.6,0-5.6,2.6-5.6,6.7
			c0,4.2,2.2,7.3,6,7.3C146.6,36,149.3,34.3,149.3,28.9z"/>
		<path class="st1" d="M161.7,8.1h6.1v28.2h14.4v5.2h-20.5V8.1z"/>
		<path class="st1" d="M198.2,26.4h0.8v-0.3c0-3.2-2-4.2-4.6-4.2c-3.4,0-6.6,2.3-6.6,2.3l-2.3-4.3c0,0,3.7-3,9.4-3
			c6.3,0,10,3.5,10,9.5v15h-5.5v-2c0-0.9,0.1-1.7,0.1-1.7h-0.1c0,0-1.8,4.2-7.3,4.2c-4.3,0-8.1-2.7-8.1-7.5
			C184,27,194.3,26.4,198.2,26.4z M193.7,37.4c3.2,0,5.4-3.4,5.4-6.3v-0.6h-1c-3.1,0-8,0.4-8,3.8C190.1,35.9,191.2,37.4,193.7,37.4z
			"/>
		<path class="st1" d="M210.2,8.1h6v10.3c0,1.2-0.1,2-0.1,2h0.1c0,0,2.1-3.5,7.2-3.5c6.5,0,10.6,5.1,10.6,12.6
			c0,7.6-4.7,12.6-11,12.6c-5,0-7.1-3.6-7.1-3.6h-0.1c0,0,0.1,0.7,0.1,1.6v1.4h-5.6V8.1z M222,37c3.3,0,6-2.7,6-7.4
			c0-4.6-2.4-7.5-6-7.5c-3.1,0-6,2.3-6,7.6C216,33.4,218,37,222,37z"/>
		<path class="st1" d="M238.7,34.3c0,0,2.6,2.6,6.5,2.6c1.7,0,3.2-0.8,3.2-2.2c0-3.6-11.7-3.1-11.7-10.8c0-4.5,4-7.1,9.2-7.1
			c5.4,0,8,2.7,8,2.7l-2.2,4.4c0,0-2.2-2.1-5.9-2.1c-1.6,0-3.1,0.7-3.1,2.2c0,3.4,11.7,3,11.7,10.7c0,4-3.5,7.2-9.2,7.2
			c-6,0-9.3-3.5-9.3-3.5L238.7,34.3z"/>
	</g>
	<g>
		<path class="st0" d="M56.5,18.7l0.5-1.8l-7.6-2.2l-0.5,1.8c-5.6,0.2-10.6,3.9-12.2,9.5c-2,7,2.1,14.3,9,16.3c7,2,14.3-2.1,16.3-9
			C63.6,27.6,61.2,21.7,56.5,18.7z"/>
		<circle class="st1" cx="56.7" cy="10.4" r="1.2"/>
		<circle class="st2" cx="49.3" cy="29.8" r="10"/>
		<path class="st1" d="M49.7,28c-1.7-0.8-3.3-1.7-5.2-1.7c-1.3,0-2.5,0.6-3.7,1.2c-0.2,0.7-0.2,1.3-0.2,2c0,4.8,3.9,8.7,8.7,8.7
			c4.8,0,8.7-3.9,8.7-8.7c0-0.4,0-0.8-0.1-1.2c-0.8,0.6-1.9,1-2.9,1.1C53.2,29.5,51.4,28.8,49.7,28z"/>
		<circle class="st1" cx="53.4" cy="26.3" r="1.6"/>
		<circle class="st1" cx="50.4" cy="23.5" r="1"/>
		<circle class="st2" cx="44.9" cy="30.4" r="1.2"/>
		<circle class="st2" cx="46.1" cy="33.2" r="0.6"/>
		<path class="st0" d="M56.5,18.7l0.5-1.8l-7.6-2.2l-0.5,1.8c-5.6,0.2-10.6,3.9-12.2,9.5c-2,7,2.1,14.3,9,16.3c7,2,14.3-2.1,16.3-9
			C63.6,27.6,61.2,21.7,56.5,18.7z M49.3,39.8c-5.5,0-10-4.5-10-10c0-5.5,4.5-10,10-10c5.5,0,10,4.5,10,10
			C59.3,35.3,54.9,39.8,49.3,39.8z"/>
		<path class="st0" d="M49.5,39.8v3c4.5,0,8.7-2.4,11.1-6.2c-0.7-1.2-1.3-2.5-1.6-3.9C57.7,36.8,53.9,39.8,49.5,39.8z"/>
		<path class="st0" d="M56.6,18.7l0.5-1.8l-3.2,4c2.4,1.2,4.2,3.3,5,5.8c0.3-1.4,0.9-2.8,1.7-4C59.6,21.1,58.2,19.7,56.6,18.7z"/>
		
			<rect x="49.2" y="12.2" transform="matrix(0.9617 0.2741 -0.2741 0.9617 5.7528 -14.2625)" class="st0" width="9.4" height="2.5"/>
		<circle class="st1" cx="53.2" cy="8.5" r="0.7"/>
		<circle class="st1" cx="57.2" cy="4.9" r="0.7"/>
	</g>
</g>
</svg>
