<svg xmlns="http://www.w3.org/2000/svg" id="Layer_1" data-name="Layer 1" viewBox="0 0 841.89 175.75"><defs><style>.cls-1{fill:#f95e08}.cls-2{fill:#fff}</style></defs><circle class="cls-1" cx="173.3" cy="83.14" r="5.32"/><circle class="cls-1" cx="163.44" cy="73.82" r="3.38"/><path class="cls-1" d="M188.2 89.75a17.87 17.87 0 0 1-9.43 3.43c-6.09.38-12-1.85-17.55-4.49s-10.9-5.69-16.89-5.52c-4.27.1-8.21 1.85-11.94 4a28.49 28.49 0 1 0 55.81 2.54zm-46.4 6.84a3.87 3.87 0 1 1 3.87 3.87 3.87 3.87 0 0 1-3.86-3.87zm7.54 11.26a2.09 2.09 0 1 1 2.09-2.09 2.09 2.09 0 0 1-2.08 2.09z"/><path class="cls-2" d="M183.48 58.13l1.68-5.89-24.79-7.07-1.72 6a43 43 0 1 0 24.83 6.91zm-23.43 69.16a32.54 32.54 0 0 1-13.16-2.77c-.82-.36-1.62-.75-2.4-1.17q-.69-.38-1.37-.79c-.77-.47-1.51-1-2.24-1.5a32.83 32.83 0 0 1-3.92-3.34c-.42-.42-.82-.85-1.22-1.29q-.86-1-1.65-2l-.47-.63a32.68 32.68 0 0 1-3-33.33q.69-1.43 1.51-2.78a32.83 32.83 0 0 1 11-11q1.35-.82 2.78-1.51a32.68 32.68 0 0 1 33.33 3l.63.47q1 .79 2 1.65c.44.4.87.8 1.29 1.22a32.84 32.84 0 0 1 3.34 3.92c.53.72 1 1.47 1.5 2.24q.41.67.79 1.37c.42.78.81 1.59 1.17 2.4a32.66 32.66 0 0 1-29.89 45.83z"/><path class="cls-2" transform="rotate(15.91 175.008 41.098)" d="M159.54 36.94h30.89v8.31h-30.89z"/><circle class="cls-1" cx="184.12" cy="31.09" r="3.87"/><circle class="cls-1" cx="172.74" cy="24.98" r="2.25"/><circle class="cls-1" cx="184.87" cy="15.13" r="2.25"/><path class="cls-2" d="M183.48 59l1.68-5.89L160.37 46l-1.72 6a43 43 0 1 0 24.83 7zm-23.43 67.11a30.85 30.85 0 1 1 30.85-30.85 30.85 30.85 0 0 1-30.84 30.82z"/><circle class="cls-1" cx="184.57" cy="31.26" r="3.87"/><circle class="cls-1" cx="172.83" cy="82.64" r="4.01"/><circle class="cls-1" cx="165.39" cy="75.61" r="2.55"/><path class="cls-1" d="M183.91 91.49a15.14 15.14 0 0 1-8 2.91c-5.16.32-10.2-1.57-14.87-3.8s-9.24-4.8-14.31-4.68c-3.62.09-7 1.56-10.12 3.42a24.14 24.14 0 1 0 47.29 2.15zm-40 4.86a3.42 3.42 0 1 1 3.42 3.42 3.42 3.42 0 0 1-3.4-3.42zm6.67 9.95a1.84 1.84 0 1 1 1.84-1.84 1.84 1.84 0 0 1-1.82 1.84z"/><path class="cls-2" transform="rotate(15.91 175.573 39.925)" d="M160.11 35.78H191v8.31h-30.89z"/><circle class="cls-1" cx="173.19" cy="25.15" r="2.25"/><circle class="cls-1" cx="185.32" cy="14.99" r="2.25"/><path class="cls-2" d="M66.13 21.78c26.6 0 40.29 14.92 40.29 14.92l-9.53 14.76S84.43 39.93 67.05 39.93c-23.07 0-36.6 17.22-36.6 37.52 0 20.76 14 39.06 36.75 39.06 18.92 0 31.68-13.84 31.68-13.84L109.34 117s-15.07 17.68-42.91 17.68C33.07 134.66 10 109.9 10 77.76c0-31.68 24-55.98 56.13-55.98zM244.66 52.54c17.22 0 22.61 10 22.61 10h.31s-.15-2-.15-4.46V23.63H287v109.18h-18.5v-6.46a39.73 39.73 0 0 1 .31-5.08h-.31s-6.61 13.38-24.61 13.38c-21.22 0-34.75-16.76-34.75-41.06 0-24.9 14.76-41.05 35.52-41.05zm3.69 65.66c10.15 0 19.68-7.38 19.68-24.76 0-12.15-6.46-24.14-19.53-24.14-10.76 0-19.68 8.77-19.68 24.3 0 14.92 8 24.6 19.53 24.6zM305.4 23.63h19.38V41H305.4zm0 30.76h19.53v78.43H305.4zM343.38 54.39h18.76v9.07a48.62 48.62 0 0 1-.31 5.38h.31c3.38-6.61 12-16.3 27.83-16.3 17.38 0 27.22 9.07 27.22 29.83v50.44h-19.37V86.37c0-9.53-2.46-16-12.46-16-10.46 0-18.15 6.61-21.07 16a33.08 33.08 0 0 0-1.38 10.46v36h-19.53zM464.25 148.5c12 0 22.14-5.07 22.14-19.07v-4.61a37.78 37.78 0 0 1 .31-4.15h-.31c-4.61 6.92-11.38 10.61-21.84 10.61-22.45 0-35.22-18.15-35.22-39.68s12.15-39.06 34.75-39.06c17.07 0 23.22 10 23.22 10h.46a14.5 14.5 0 0 1-.15-2.15v-6h18.3V128c0 26.91-20.91 37.06-41.37 37.06a62.5 62.5 0 0 1-27.83-6.77l5.84-14.92a52.71 52.71 0 0 0 21.7 5.13zm22.61-56.75c0-17.84-8.77-22.61-19.38-22.61C455.64 69.15 449 77.76 449 91c0 13.69 7.07 23.84 19.68 23.84 9.41-.02 18.18-5.4 18.18-23.09z"/><path class="cls-1" d="M527.45 23.63h19.84v92.12h47.21v17.07h-67zM647.09 83.6h2.61v-1.07c0-10.3-6.46-13.84-15.07-13.84-11.23 0-21.53 7.54-21.53 7.54l-7.38-14a52.91 52.91 0 0 1 30.76-9.69c20.61 0 32.6 11.38 32.6 31.22v49.06h-18v-6.46a49.91 49.91 0 0 1 .31-5.54h-.31c.15 0-6 13.84-23.84 13.84-14 0-26.6-8.76-26.6-24.45 0-24.91 33.68-26.61 46.45-26.61zm-14.92 35.83c10.3 0 17.69-11.07 17.69-20.61V97h-3.38c-10 0-26.14 1.38-26.14 12.3-.01 5.21 3.83 10.14 11.83 10.14zM686.3 23.63h19.53v33.68c0 3.85-.31 6.61-.31 6.61h.31s6.92-11.38 23.53-11.38c21.22 0 34.76 16.76 34.76 41.06 0 24.91-15.22 41.06-36 41.06-16.3 0-23.37-11.69-23.37-11.69h-.31a45.12 45.12 0 0 1 .31 5.38v4.46H686.3zm38.45 94.58c10.76 0 19.68-8.76 19.68-24.3 0-14.92-8-24.61-19.53-24.61-10.15 0-19.68 7.38-19.68 24.76-.01 12.15 6.45 24.14 19.52 24.14zM779.48 109.44s8.61 8.61 21.38 8.61c5.54 0 10.3-2.46 10.3-7.07 0-11.69-38.14-10.15-38.14-35.37C773 61 786.1 52.54 803 52.54c17.68 0 26.3 8.92 26.3 8.92l-7.23 14.46a29.78 29.78 0 0 0-19.22-6.77c-5.07 0-10 2.15-10 7.07 0 11.07 38.14 9.69 38.14 34.91 0 13.07-11.38 23.53-30 23.53-19.53 0-30.45-11.53-30.45-11.53z"/></svg>