<svg xmlns="http://www.w3.org/2000/svg" width="24" height="24"><defs><clipPath id="b"><path fill="none" d="M0 0h16v12.978H0z"/></clipPath><clipPath id="a"><path d="M0 0h24v24H0z"/></clipPath></defs><g data-name="Artboard – 1" clip-path="url(#a)"><g transform="translate(4 6)" clip-path="url(#b)"><path data-name="Path 2" d="M5.067 12.978A9.25 9.25 0 0 0 14.4 3.644V3.2A7.225 7.225 0 0 0 16 1.511a7.379 7.379 0 0 1-1.867.533A3.458 3.458 0 0 0 15.555.266a8.153 8.153 0 0 1-2.044.8A3.175 3.175 0 0 0 11.111 0a3.34 3.34 0 0 0-3.289 3.289A1.733 1.733 0 0 0 7.911 4 9.19 9.19 0 0 1 1.155.533a3.4 3.4 0 0 0-.444 1.689 3.532 3.532 0 0 0 1.422 2.756 3 3 0 0 1-1.511-.444 3.249 3.249 0 0 0 2.667 3.2 2.74 2.74 0 0 1-.889.089 1.513 1.513 0 0 1-.622-.089 3.367 3.367 0 0 0 3.111 2.311A6.711 6.711 0 0 1 .8 11.467a2.461 2.461 0 0 1-.8-.089 8.39 8.39 0 0 0 5.067 1.6" fill="#86c232" fill-rule="evenodd"/></g></g></svg>